<svg width="20" height="20" viewBox="0 0 20 20" fill="none" xmlns="http://www.w3.org/2000/svg">
<path d="M9.9425 1.715C10.0457 1.58587 10.1735 1.47849 10.3185 1.39907C10.4634 1.31966 10.6227 1.26979 10.7871 1.25235C10.9515 1.23491 11.1177 1.25025 11.2761 1.29748C11.4345 1.34471 11.582 1.42289 11.71 1.5275L15.7875 4.8575C16.0117 5.04059 16.1655 5.29583 16.2225 5.57966C16.2795 5.86348 16.2362 6.15829 16.1 6.41375C15.7435 6.3048 15.3728 6.24961 15 6.25H14.625L14.9975 5.825L12.85 4.07125L11.0787 6.25125H9.4675L11.8813 3.28125L10.9187 2.495L7.92125 6.25H6.32125L9.9425 1.715ZM13.125 12.5C12.9592 12.5 12.8003 12.5658 12.6831 12.6831C12.5658 12.8003 12.5 12.9592 12.5 13.125C12.5 13.2908 12.5658 13.4497 12.6831 13.5669C12.8003 13.6842 12.9592 13.75 13.125 13.75H14.375C14.5408 13.75 14.6997 13.6842 14.8169 13.5669C14.9342 13.4497 15 13.2908 15 13.125C15 12.9592 14.9342 12.8003 14.8169 12.6831C14.6997 12.5658 14.5408 12.5 14.375 12.5H13.125ZM3.75 6.875C3.75 6.70924 3.81585 6.55027 3.93306 6.43306C4.05027 6.31585 4.20924 6.25 4.375 6.25H5.0725L6.06625 5H4.375C3.87772 5 3.40081 5.19754 3.04917 5.54917C2.69754 5.9008 2.5 6.37772 2.5 6.875V14.375C2.5 15.2038 2.82924 15.9987 3.41529 16.5847C4.00134 17.1708 4.7962 17.5 5.625 17.5H15C15.663 17.5 16.2989 17.2366 16.7678 16.7678C17.2366 16.2989 17.5 15.663 17.5 15V10C17.5 9.33696 17.2366 8.70107 16.7678 8.23223C16.2989 7.76339 15.663 7.5 15 7.5H4.375C4.20924 7.5 4.05027 7.43415 3.93306 7.31694C3.81585 7.19973 3.75 7.04076 3.75 6.875ZM3.75 14.375V8.64375C3.945 8.7125 4.15625 8.75 4.375 8.75H15C15.3315 8.75 15.6495 8.8817 15.8839 9.11612C16.1183 9.35054 16.25 9.66848 16.25 10V15C16.25 15.3315 16.1183 15.6495 15.8839 15.8839C15.6495 16.1183 15.3315 16.25 15 16.25H5.625C5.12772 16.25 4.65081 16.0525 4.29917 15.7008C3.94754 15.3492 3.75 14.8723 3.75 14.375Z" fill="white"/>
</svg>
