<svg width="19" height="16" viewBox="0 0 19 16" fill="none" xmlns="http://www.w3.org/2000/svg">
<path id="Vector" d="M3 0.5H16C16.7956 0.5 17.5587 0.816071 18.1213 1.37868C18.6839 1.94129 19 2.70435 19 3.5V12.5C19 13.2956 18.6839 14.0587 18.1213 14.6213C17.5587 15.1839 16.7956 15.5 16 15.5H3C2.20435 15.5 1.44129 15.1839 0.87868 14.6213C0.316071 14.0587 0 13.2956 0 12.5V3.5C0 2.70435 0.316071 1.94129 0.87868 1.37868C1.44129 0.816071 2.20435 0.5 3 0.5ZM3 1.5C2.46957 1.5 1.96086 1.71071 1.58579 2.08579C1.21071 2.46086 1 2.96957 1 3.5V4.5H18V3.5C18 2.96957 17.7893 2.46086 17.4142 2.08579C17.0391 1.71071 16.5304 1.5 16 1.5H3ZM1 12.5C1 13.0304 1.21071 13.5391 1.58579 13.9142C1.96086 14.2893 2.46957 14.5 3 14.5H16C16.5304 14.5 17.0391 14.2893 17.4142 13.9142C17.7893 13.5391 18 13.0304 18 12.5V7.5H1V12.5ZM3 11.5H7V12.5H3V11.5ZM9 11.5H12V12.5H9V11.5ZM1 5.5V6.5H18V5.5H1Z" fill="#9B0000"/>
</svg>
